<?xml version="1.0" encoding="utf-8" standalone="no"?>
<!DOCTYPE svg PUBLIC "-//W3C//DTD SVG 1.1//EN"
  "http://www.w3.org/Graphics/SVG/1.1/DTD/svg11.dtd">
<!-- Created with matplotlib (http://matplotlib.org/) -->
<svg height="701pt" version="1.1" viewBox="0 0 930 701" width="930pt" xmlns="http://www.w3.org/2000/svg" xmlns:xlink="http://www.w3.org/1999/xlink">
 <defs>
  <style type="text/css">
*{stroke-linecap:butt;stroke-linejoin:round;}
  </style>
 </defs>
 <g id="figure_1">
  <g id="patch_1">
   <path d="M 0 701.667375 
L 930.210156 701.667375 
L 930.210156 0 
L 0 0 
z
" style="fill:#ffffff;"/>
  </g>
  <g id="axes_1">
   <g id="patch_2">
    <path d="M 79.250781 635.07675 
L 916.250781 635.07675 
L 916.250781 80.67675 
L 79.250781 80.67675 
z
" style="fill:#ffffff;"/>
   </g>
   <g id="matplotlib.axis_1">
    <g id="xtick_1">
     <g id="line2d_1">
      <defs>
       <path d="M 0 0 
L 0 3.5 
" id="md5c3d69629" style="stroke:#000000;stroke-width:0.8;"/>
      </defs>
      <g>
       <use style="stroke:#000000;stroke-width:0.8;" x="117.296236" xlink:href="#md5c3d69629" y="635.07675"/>
      </g>
     </g>
     <g id="text_1">
      <!-- 0 -->
      <defs>
       <path d="M 31.78125 66.40625 
Q 24.171875 66.40625 20.328125 58.90625 
Q 16.5 51.421875 16.5 36.375 
Q 16.5 21.390625 20.328125 13.890625 
Q 24.171875 6.390625 31.78125 6.390625 
Q 39.453125 6.390625 43.28125 13.890625 
Q 47.125 21.390625 47.125 36.375 
Q 47.125 51.421875 43.28125 58.90625 
Q 39.453125 66.40625 31.78125 66.40625 
z
M 31.78125 74.21875 
Q 44.046875 74.21875 50.515625 64.515625 
Q 56.984375 54.828125 56.984375 36.375 
Q 56.984375 17.96875 50.515625 8.265625 
Q 44.046875 -1.421875 31.78125 -1.421875 
Q 19.53125 -1.421875 13.0625 8.265625 
Q 6.59375 17.96875 6.59375 36.375 
Q 6.59375 54.828125 13.0625 64.515625 
Q 19.53125 74.21875 31.78125 74.21875 
z
" id="DejaVuSans-30"/>
      </defs>
      <g transform="translate(109.343111 661.072844)scale(0.25 -0.25)">
       <use xlink:href="#DejaVuSans-30"/>
      </g>
     </g>
    </g>
    <g id="xtick_2">
     <g id="line2d_2">
      <g>
       <use style="stroke:#000000;stroke-width:0.8;" x="498.495311" xlink:href="#md5c3d69629" y="635.07675"/>
      </g>
     </g>
     <g id="text_2">
      <!-- 1 -->
      <defs>
       <path d="M 12.40625 8.296875 
L 28.515625 8.296875 
L 28.515625 63.921875 
L 10.984375 60.40625 
L 10.984375 69.390625 
L 28.421875 72.90625 
L 38.28125 72.90625 
L 38.28125 8.296875 
L 54.390625 8.296875 
L 54.390625 0 
L 12.40625 0 
z
" id="DejaVuSans-31"/>
      </defs>
      <g transform="translate(490.542186 661.072844)scale(0.25 -0.25)">
       <use xlink:href="#DejaVuSans-31"/>
      </g>
     </g>
    </g>
    <g id="xtick_3">
     <g id="line2d_3">
      <g>
       <use style="stroke:#000000;stroke-width:0.8;" x="879.694386" xlink:href="#md5c3d69629" y="635.07675"/>
      </g>
     </g>
     <g id="text_3">
      <!-- 2 -->
      <defs>
       <path d="M 19.1875 8.296875 
L 53.609375 8.296875 
L 53.609375 0 
L 7.328125 0 
L 7.328125 8.296875 
Q 12.9375 14.109375 22.625 23.890625 
Q 32.328125 33.6875 34.8125 36.53125 
Q 39.546875 41.84375 41.421875 45.53125 
Q 43.3125 49.21875 43.3125 52.78125 
Q 43.3125 58.59375 39.234375 62.25 
Q 35.15625 65.921875 28.609375 65.921875 
Q 23.96875 65.921875 18.8125 64.3125 
Q 13.671875 62.703125 7.8125 59.421875 
L 7.8125 69.390625 
Q 13.765625 71.78125 18.9375 73 
Q 24.125 74.21875 28.421875 74.21875 
Q 39.75 74.21875 46.484375 68.546875 
Q 53.21875 62.890625 53.21875 53.421875 
Q 53.21875 48.921875 51.53125 44.890625 
Q 49.859375 40.875 45.40625 35.40625 
Q 44.1875 33.984375 37.640625 27.21875 
Q 31.109375 20.453125 19.1875 8.296875 
z
" id="DejaVuSans-32"/>
      </defs>
      <g transform="translate(871.741261 661.072844)scale(0.25 -0.25)">
       <use xlink:href="#DejaVuSans-32"/>
      </g>
     </g>
    </g>
    <g id="text_4">
     <!-- time [s] -->
     <defs>
      <path d="M 18.3125 70.21875 
L 18.3125 54.6875 
L 36.8125 54.6875 
L 36.8125 47.703125 
L 18.3125 47.703125 
L 18.3125 18.015625 
Q 18.3125 11.328125 20.140625 9.421875 
Q 21.96875 7.515625 27.59375 7.515625 
L 36.8125 7.515625 
L 36.8125 0 
L 27.59375 0 
Q 17.1875 0 13.234375 3.875 
Q 9.28125 7.765625 9.28125 18.015625 
L 9.28125 47.703125 
L 2.6875 47.703125 
L 2.6875 54.6875 
L 9.28125 54.6875 
L 9.28125 70.21875 
z
" id="DejaVuSans-74"/>
      <path d="M 9.421875 54.6875 
L 18.40625 54.6875 
L 18.40625 0 
L 9.421875 0 
z
M 9.421875 75.984375 
L 18.40625 75.984375 
L 18.40625 64.59375 
L 9.421875 64.59375 
z
" id="DejaVuSans-69"/>
      <path d="M 52 44.1875 
Q 55.375 50.25 60.0625 53.125 
Q 64.75 56 71.09375 56 
Q 79.640625 56 84.28125 50.015625 
Q 88.921875 44.046875 88.921875 33.015625 
L 88.921875 0 
L 79.890625 0 
L 79.890625 32.71875 
Q 79.890625 40.578125 77.09375 44.375 
Q 74.3125 48.1875 68.609375 48.1875 
Q 61.625 48.1875 57.5625 43.546875 
Q 53.515625 38.921875 53.515625 30.90625 
L 53.515625 0 
L 44.484375 0 
L 44.484375 32.71875 
Q 44.484375 40.625 41.703125 44.40625 
Q 38.921875 48.1875 33.109375 48.1875 
Q 26.21875 48.1875 22.15625 43.53125 
Q 18.109375 38.875 18.109375 30.90625 
L 18.109375 0 
L 9.078125 0 
L 9.078125 54.6875 
L 18.109375 54.6875 
L 18.109375 46.1875 
Q 21.1875 51.21875 25.484375 53.609375 
Q 29.78125 56 35.6875 56 
Q 41.65625 56 45.828125 52.96875 
Q 50 49.953125 52 44.1875 
z
" id="DejaVuSans-6d"/>
      <path d="M 56.203125 29.59375 
L 56.203125 25.203125 
L 14.890625 25.203125 
Q 15.484375 15.921875 20.484375 11.0625 
Q 25.484375 6.203125 34.421875 6.203125 
Q 39.59375 6.203125 44.453125 7.46875 
Q 49.3125 8.734375 54.109375 11.28125 
L 54.109375 2.78125 
Q 49.265625 0.734375 44.1875 -0.34375 
Q 39.109375 -1.421875 33.890625 -1.421875 
Q 20.796875 -1.421875 13.15625 6.1875 
Q 5.515625 13.8125 5.515625 26.8125 
Q 5.515625 40.234375 12.765625 48.109375 
Q 20.015625 56 32.328125 56 
Q 43.359375 56 49.78125 48.890625 
Q 56.203125 41.796875 56.203125 29.59375 
z
M 47.21875 32.234375 
Q 47.125 39.59375 43.09375 43.984375 
Q 39.0625 48.390625 32.421875 48.390625 
Q 24.90625 48.390625 20.390625 44.140625 
Q 15.875 39.890625 15.1875 32.171875 
z
" id="DejaVuSans-65"/>
      <path id="DejaVuSans-20"/>
      <path d="M 8.59375 75.984375 
L 29.296875 75.984375 
L 29.296875 69 
L 17.578125 69 
L 17.578125 -6.203125 
L 29.296875 -6.203125 
L 29.296875 -13.1875 
L 8.59375 -13.1875 
z
" id="DejaVuSans-5b"/>
      <path d="M 44.28125 53.078125 
L 44.28125 44.578125 
Q 40.484375 46.53125 36.375 47.5 
Q 32.28125 48.484375 27.875 48.484375 
Q 21.1875 48.484375 17.84375 46.4375 
Q 14.5 44.390625 14.5 40.28125 
Q 14.5 37.15625 16.890625 35.375 
Q 19.28125 33.59375 26.515625 31.984375 
L 29.59375 31.296875 
Q 39.15625 29.25 43.1875 25.515625 
Q 47.21875 21.78125 47.21875 15.09375 
Q 47.21875 7.46875 41.1875 3.015625 
Q 35.15625 -1.421875 24.609375 -1.421875 
Q 20.21875 -1.421875 15.453125 -0.5625 
Q 10.6875 0.296875 5.421875 2 
L 5.421875 11.28125 
Q 10.40625 8.6875 15.234375 7.390625 
Q 20.0625 6.109375 24.8125 6.109375 
Q 31.15625 6.109375 34.5625 8.28125 
Q 37.984375 10.453125 37.984375 14.40625 
Q 37.984375 18.0625 35.515625 20.015625 
Q 33.0625 21.96875 24.703125 23.78125 
L 21.578125 24.515625 
Q 13.234375 26.265625 9.515625 29.90625 
Q 5.8125 33.546875 5.8125 39.890625 
Q 5.8125 47.609375 11.28125 51.796875 
Q 16.75 56 26.8125 56 
Q 31.78125 56 36.171875 55.265625 
Q 40.578125 54.546875 44.28125 53.078125 
z
" id="DejaVuSans-73"/>
      <path d="M 30.421875 75.984375 
L 30.421875 -13.1875 
L 9.71875 -13.1875 
L 9.71875 -6.203125 
L 21.390625 -6.203125 
L 21.390625 69 
L 9.71875 69 
L 9.71875 75.984375 
z
" id="DejaVuSans-5d"/>
     </defs>
     <g transform="translate(449.272266 689.268156)scale(0.25 -0.25)">
      <use xlink:href="#DejaVuSans-74"/>
      <use x="39.208984" xlink:href="#DejaVuSans-69"/>
      <use x="66.992188" xlink:href="#DejaVuSans-6d"/>
      <use x="164.404297" xlink:href="#DejaVuSans-65"/>
      <use x="225.927734" xlink:href="#DejaVuSans-20"/>
      <use x="257.714844" xlink:href="#DejaVuSans-5b"/>
      <use x="296.728516" xlink:href="#DejaVuSans-73"/>
      <use x="348.828125" xlink:href="#DejaVuSans-5d"/>
     </g>
    </g>
   </g>
   <g id="matplotlib.axis_2">
    <g id="ytick_1">
     <g id="line2d_4">
      <defs>
       <path d="M 0 0 
L -3.5 0 
" id="m53832a5e4c" style="stroke:#000000;stroke-width:0.8;"/>
      </defs>
      <g>
       <use style="stroke:#000000;stroke-width:0.8;" x="79.250781" xlink:href="#m53832a5e4c" y="633.419464"/>
      </g>
     </g>
     <g id="text_5">
      <!-- −3 -->
      <defs>
       <path d="M 10.59375 35.5 
L 73.1875 35.5 
L 73.1875 27.203125 
L 10.59375 27.203125 
z
" id="DejaVuSans-2212"/>
       <path d="M 40.578125 39.3125 
Q 47.65625 37.796875 51.625 33 
Q 55.609375 28.21875 55.609375 21.1875 
Q 55.609375 10.40625 48.1875 4.484375 
Q 40.765625 -1.421875 27.09375 -1.421875 
Q 22.515625 -1.421875 17.65625 -0.515625 
Q 12.796875 0.390625 7.625 2.203125 
L 7.625 11.71875 
Q 11.71875 9.328125 16.59375 8.109375 
Q 21.484375 6.890625 26.8125 6.890625 
Q 36.078125 6.890625 40.9375 10.546875 
Q 45.796875 14.203125 45.796875 21.1875 
Q 45.796875 27.640625 41.28125 31.265625 
Q 36.765625 34.90625 28.71875 34.90625 
L 20.21875 34.90625 
L 20.21875 43.015625 
L 29.109375 43.015625 
Q 36.375 43.015625 40.234375 45.921875 
Q 44.09375 48.828125 44.09375 54.296875 
Q 44.09375 59.90625 40.109375 62.90625 
Q 36.140625 65.921875 28.71875 65.921875 
Q 24.65625 65.921875 20.015625 65.03125 
Q 15.375 64.15625 9.8125 62.3125 
L 9.8125 71.09375 
Q 15.4375 72.65625 20.34375 73.4375 
Q 25.25 74.21875 29.59375 74.21875 
Q 40.828125 74.21875 47.359375 69.109375 
Q 53.90625 64.015625 53.90625 55.328125 
Q 53.90625 49.265625 50.4375 45.09375 
Q 46.96875 40.921875 40.578125 39.3125 
z
" id="DejaVuSans-33"/>
      </defs>
      <g transform="translate(35.395313 642.917511)scale(0.25 -0.25)">
       <use xlink:href="#DejaVuSans-2212"/>
       <use x="83.789062" xlink:href="#DejaVuSans-33"/>
      </g>
     </g>
    </g>
    <g id="ytick_2">
     <g id="line2d_5">
      <g>
       <use style="stroke:#000000;stroke-width:0.8;" x="79.250781" xlink:href="#m53832a5e4c" y="548.232813"/>
      </g>
     </g>
     <g id="text_6">
      <!-- −2 -->
      <g transform="translate(35.395313 557.73086)scale(0.25 -0.25)">
       <use xlink:href="#DejaVuSans-2212"/>
       <use x="83.789062" xlink:href="#DejaVuSans-32"/>
      </g>
     </g>
    </g>
    <g id="ytick_3">
     <g id="line2d_6">
      <g>
       <use style="stroke:#000000;stroke-width:0.8;" x="79.250781" xlink:href="#m53832a5e4c" y="463.046163"/>
      </g>
     </g>
     <g id="text_7">
      <!-- −1 -->
      <g transform="translate(35.395313 472.54421)scale(0.25 -0.25)">
       <use xlink:href="#DejaVuSans-2212"/>
       <use x="83.789062" xlink:href="#DejaVuSans-31"/>
      </g>
     </g>
    </g>
    <g id="ytick_4">
     <g id="line2d_7">
      <g>
       <use style="stroke:#000000;stroke-width:0.8;" x="79.250781" xlink:href="#m53832a5e4c" y="377.859513"/>
      </g>
     </g>
     <g id="text_8">
      <!-- 0 -->
      <g transform="translate(56.344531 387.35756)scale(0.25 -0.25)">
       <use xlink:href="#DejaVuSans-30"/>
      </g>
     </g>
    </g>
    <g id="ytick_5">
     <g id="line2d_8">
      <g>
       <use style="stroke:#000000;stroke-width:0.8;" x="79.250781" xlink:href="#m53832a5e4c" y="292.672863"/>
      </g>
     </g>
     <g id="text_9">
      <!-- 1 -->
      <g transform="translate(56.344531 302.170909)scale(0.25 -0.25)">
       <use xlink:href="#DejaVuSans-31"/>
      </g>
     </g>
    </g>
    <g id="ytick_6">
     <g id="line2d_9">
      <g>
       <use style="stroke:#000000;stroke-width:0.8;" x="79.250781" xlink:href="#m53832a5e4c" y="207.486212"/>
      </g>
     </g>
     <g id="text_10">
      <!-- 2 -->
      <g transform="translate(56.344531 216.984259)scale(0.25 -0.25)">
       <use xlink:href="#DejaVuSans-32"/>
      </g>
     </g>
    </g>
    <g id="ytick_7">
     <g id="line2d_10">
      <g>
       <use style="stroke:#000000;stroke-width:0.8;" x="79.250781" xlink:href="#m53832a5e4c" y="122.299562"/>
      </g>
     </g>
     <g id="text_11">
      <!-- 3 -->
      <g transform="translate(56.344531 131.797609)scale(0.25 -0.25)">
       <use xlink:href="#DejaVuSans-33"/>
      </g>
     </g>
    </g>
    <g id="text_12">
     <!-- normalized strain -->
     <defs>
      <path d="M 54.890625 33.015625 
L 54.890625 0 
L 45.90625 0 
L 45.90625 32.71875 
Q 45.90625 40.484375 42.875 44.328125 
Q 39.84375 48.1875 33.796875 48.1875 
Q 26.515625 48.1875 22.3125 43.546875 
Q 18.109375 38.921875 18.109375 30.90625 
L 18.109375 0 
L 9.078125 0 
L 9.078125 54.6875 
L 18.109375 54.6875 
L 18.109375 46.1875 
Q 21.34375 51.125 25.703125 53.5625 
Q 30.078125 56 35.796875 56 
Q 45.21875 56 50.046875 50.171875 
Q 54.890625 44.34375 54.890625 33.015625 
z
" id="DejaVuSans-6e"/>
      <path d="M 30.609375 48.390625 
Q 23.390625 48.390625 19.1875 42.75 
Q 14.984375 37.109375 14.984375 27.296875 
Q 14.984375 17.484375 19.15625 11.84375 
Q 23.34375 6.203125 30.609375 6.203125 
Q 37.796875 6.203125 41.984375 11.859375 
Q 46.1875 17.53125 46.1875 27.296875 
Q 46.1875 37.015625 41.984375 42.703125 
Q 37.796875 48.390625 30.609375 48.390625 
z
M 30.609375 56 
Q 42.328125 56 49.015625 48.375 
Q 55.71875 40.765625 55.71875 27.296875 
Q 55.71875 13.875 49.015625 6.21875 
Q 42.328125 -1.421875 30.609375 -1.421875 
Q 18.84375 -1.421875 12.171875 6.21875 
Q 5.515625 13.875 5.515625 27.296875 
Q 5.515625 40.765625 12.171875 48.375 
Q 18.84375 56 30.609375 56 
z
" id="DejaVuSans-6f"/>
      <path d="M 41.109375 46.296875 
Q 39.59375 47.171875 37.8125 47.578125 
Q 36.03125 48 33.890625 48 
Q 26.265625 48 22.1875 43.046875 
Q 18.109375 38.09375 18.109375 28.8125 
L 18.109375 0 
L 9.078125 0 
L 9.078125 54.6875 
L 18.109375 54.6875 
L 18.109375 46.1875 
Q 20.953125 51.171875 25.484375 53.578125 
Q 30.03125 56 36.53125 56 
Q 37.453125 56 38.578125 55.875 
Q 39.703125 55.765625 41.0625 55.515625 
z
" id="DejaVuSans-72"/>
      <path d="M 34.28125 27.484375 
Q 23.390625 27.484375 19.1875 25 
Q 14.984375 22.515625 14.984375 16.5 
Q 14.984375 11.71875 18.140625 8.90625 
Q 21.296875 6.109375 26.703125 6.109375 
Q 34.1875 6.109375 38.703125 11.40625 
Q 43.21875 16.703125 43.21875 25.484375 
L 43.21875 27.484375 
z
M 52.203125 31.203125 
L 52.203125 0 
L 43.21875 0 
L 43.21875 8.296875 
Q 40.140625 3.328125 35.546875 0.953125 
Q 30.953125 -1.421875 24.3125 -1.421875 
Q 15.921875 -1.421875 10.953125 3.296875 
Q 6 8.015625 6 15.921875 
Q 6 25.140625 12.171875 29.828125 
Q 18.359375 34.515625 30.609375 34.515625 
L 43.21875 34.515625 
L 43.21875 35.40625 
Q 43.21875 41.609375 39.140625 45 
Q 35.0625 48.390625 27.6875 48.390625 
Q 23 48.390625 18.546875 47.265625 
Q 14.109375 46.140625 10.015625 43.890625 
L 10.015625 52.203125 
Q 14.9375 54.109375 19.578125 55.046875 
Q 24.21875 56 28.609375 56 
Q 40.484375 56 46.34375 49.84375 
Q 52.203125 43.703125 52.203125 31.203125 
z
" id="DejaVuSans-61"/>
      <path d="M 9.421875 75.984375 
L 18.40625 75.984375 
L 18.40625 0 
L 9.421875 0 
z
" id="DejaVuSans-6c"/>
      <path d="M 5.515625 54.6875 
L 48.1875 54.6875 
L 48.1875 46.484375 
L 14.40625 7.171875 
L 48.1875 7.171875 
L 48.1875 0 
L 4.296875 0 
L 4.296875 8.203125 
L 38.09375 47.515625 
L 5.515625 47.515625 
z
" id="DejaVuSans-7a"/>
      <path d="M 45.40625 46.390625 
L 45.40625 75.984375 
L 54.390625 75.984375 
L 54.390625 0 
L 45.40625 0 
L 45.40625 8.203125 
Q 42.578125 3.328125 38.25 0.953125 
Q 33.9375 -1.421875 27.875 -1.421875 
Q 17.96875 -1.421875 11.734375 6.484375 
Q 5.515625 14.40625 5.515625 27.296875 
Q 5.515625 40.1875 11.734375 48.09375 
Q 17.96875 56 27.875 56 
Q 33.9375 56 38.25 53.625 
Q 42.578125 51.265625 45.40625 46.390625 
z
M 14.796875 27.296875 
Q 14.796875 17.390625 18.875 11.75 
Q 22.953125 6.109375 30.078125 6.109375 
Q 37.203125 6.109375 41.296875 11.75 
Q 45.40625 17.390625 45.40625 27.296875 
Q 45.40625 37.203125 41.296875 42.84375 
Q 37.203125 48.484375 30.078125 48.484375 
Q 22.953125 48.484375 18.875 42.84375 
Q 14.796875 37.203125 14.796875 27.296875 
z
" id="DejaVuSans-64"/>
     </defs>
     <g transform="translate(26.196094 467.130656)rotate(-90)scale(0.25 -0.25)">
      <use xlink:href="#DejaVuSans-6e"/>
      <use x="63.378906" xlink:href="#DejaVuSans-6f"/>
      <use x="124.560547" xlink:href="#DejaVuSans-72"/>
      <use x="165.658203" xlink:href="#DejaVuSans-6d"/>
      <use x="263.070312" xlink:href="#DejaVuSans-61"/>
      <use x="324.349609" xlink:href="#DejaVuSans-6c"/>
      <use x="352.132812" xlink:href="#DejaVuSans-69"/>
      <use x="379.916016" xlink:href="#DejaVuSans-7a"/>
      <use x="432.40625" xlink:href="#DejaVuSans-65"/>
      <use x="493.929688" xlink:href="#DejaVuSans-64"/>
      <use x="557.40625" xlink:href="#DejaVuSans-20"/>
      <use x="589.193359" xlink:href="#DejaVuSans-73"/>
      <use x="641.292969" xlink:href="#DejaVuSans-74"/>
      <use x="680.501953" xlink:href="#DejaVuSans-72"/>
      <use x="721.615234" xlink:href="#DejaVuSans-61"/>
      <use x="782.894531" xlink:href="#DejaVuSans-69"/>
      <use x="810.677734" xlink:href="#DejaVuSans-6e"/>
     </g>
    </g>
   </g>
   <g id="line2d_11">
    <path clip-path="url(#p6e0a9be37d)" d="M 117.296236 371.255058 
L 118.785295 251.25283 
L 120.274354 371.000082 
L 121.763412 310.258777 
L 123.252471 440.110106 
L 124.74153 380.721135 
L 126.230589 299.878305 
L 127.719648 399.561483 
L 129.208707 320.931851 
L 130.697766 344.387214 
L 132.186825 390.820872 
L 133.675884 358.731081 
L 135.164942 375.120941 
L 136.654001 456.943202 
L 138.14306 425.366791 
L 139.632119 473.038062 
L 141.121178 364.208307 
L 142.610237 311.564385 
L 144.099296 473.613904 
L 145.588355 342.53892 
L 147.077414 430.593189 
L 148.566472 293.114028 
L 150.055531 263.509944 
L 153.033649 606.059166 
L 154.522708 404.540967 
L 156.011767 364.781564 
L 157.500826 281.60265 
L 158.989885 425.622769 
L 160.478943 321.527292 
L 161.968002 432.174593 
L 163.457061 422.424998 
L 164.94612 356.506992 
L 166.435179 204.627853 
L 167.924238 322.258318 
L 169.413297 245.287597 
L 170.902356 260.416708 
L 172.391415 346.773973 
L 173.880473 346.309814 
L 175.369532 411.494983 
L 176.858591 351.351946 
L 178.34765 377.18016 
L 179.836709 429.969964 
L 181.325768 367.672396 
L 182.814827 483.088282 
L 184.303886 281.186304 
L 185.792945 388.447622 
L 187.282003 329.042402 
L 188.771062 311.241968 
L 190.260121 398.115736 
L 191.74918 413.224846 
L 193.238239 141.974688 
L 194.727298 423.450255 
L 196.216357 455.020132 
L 197.705416 302.473268 
L 199.194475 395.966287 
L 200.683533 342.535823 
L 202.172592 264.92322 
L 203.661651 394.856564 
L 205.15071 502.31683 
L 206.639769 381.426251 
L 208.128828 422.940731 
L 209.617887 392.440237 
L 211.106946 450.112455 
L 212.596005 502.928692 
L 214.085063 350.808669 
L 215.574122 296.413695 
L 217.063181 428.851797 
L 218.55224 403.085376 
L 220.041299 338.777981 
L 221.530358 448.957299 
L 223.019417 365.363392 
L 224.508476 330.670555 
L 225.997534 378.316894 
L 227.486593 353.424991 
L 228.975652 382.844585 
L 230.464711 279.736905 
L 231.95377 238.471585 
L 233.442829 391.302463 
L 234.931888 274.406403 
L 236.420947 369.511805 
L 237.910006 267.958024 
L 239.399064 305.866057 
L 240.888123 349.419988 
L 242.377182 407.044933 
L 243.866241 485.080518 
L 245.3553 484.772323 
L 246.844359 464.320631 
L 248.333418 373.541563 
L 249.822477 466.542371 
L 251.311536 535.124302 
L 252.800594 311.658126 
L 254.289653 273.890019 
L 255.778712 372.052841 
L 257.267771 350.322601 
L 258.75683 271.980598 
L 260.245889 251.911344 
L 261.734948 265.082319 
L 263.224007 497.219081 
L 264.713066 430.744641 
L 266.202124 433.582579 
L 267.691183 485.210046 
L 269.180242 230.092509 
L 270.669301 348.843339 
L 272.15836 577.899219 
L 273.647419 278.966798 
L 275.136478 270.056177 
L 276.625537 536.517685 
L 278.114596 266.544534 
L 279.603654 405.361136 
L 281.092713 340.874202 
L 282.581772 347.782676 
L 284.070831 424.798931 
L 285.55989 305.242857 
L 287.048949 324.304589 
L 288.538008 303.048374 
L 290.027067 432.684655 
L 291.516125 419.985224 
L 293.005184 410.288034 
L 294.494243 350.084635 
L 295.983302 447.312939 
L 297.472361 438.079236 
L 298.96142 395.747128 
L 300.450479 404.146347 
L 301.939538 501.570242 
L 303.428597 328.853422 
L 304.917655 424.350804 
L 306.406714 299.86683 
L 307.895773 539.871956 
L 309.384832 373.926146 
L 310.873891 303.002077 
L 312.36295 460.810226 
L 313.852009 378.668259 
L 315.341068 458.135562 
L 316.830127 367.015648 
L 318.319185 307.526756 
L 319.808244 351.738188 
L 321.297303 367.512922 
L 322.786362 180.712469 
L 324.275421 268.553627 
L 325.76448 285.792031 
L 327.253539 453.656412 
L 328.742598 435.314754 
L 330.231657 461.839973 
L 331.720715 428.735791 
L 333.209774 435.006818 
L 334.698833 451.938057 
L 336.187892 341.605621 
L 337.676951 447.854046 
L 339.16601 255.730218 
L 340.655069 161.296074 
L 342.144128 556.723463 
L 343.633187 369.593261 
L 345.122245 438.684364 
L 346.611304 462.975073 
L 348.100363 444.941154 
L 349.589422 457.350257 
L 351.078481 392.505772 
L 352.56754 238.053726 
L 354.056599 423.413327 
L 355.545658 399.394347 
L 357.034716 246.095725 
L 358.523775 399.335155 
L 361.501893 422.506537 
L 362.990952 320.222146 
L 364.480011 480.425336 
L 365.96907 298.194046 
L 367.458129 442.234663 
L 368.947188 540.376275 
L 370.436246 477.318138 
L 371.925305 325.029384 
L 373.414364 383.741601 
L 374.903423 264.776612 
L 376.392482 366.067788 
L 377.881541 335.019847 
L 379.3706 483.954497 
L 380.859659 430.569964 
L 382.348718 300.061116 
L 383.837776 398.302191 
L 385.326835 466.125892 
L 386.815894 546.179688 
L 388.304953 330.805043 
L 389.794012 483.740723 
L 391.283071 330.356845 
L 392.77213 508.054529 
L 394.261189 498.546447 
L 395.750248 409.901528 
L 397.239306 334.166884 
L 398.728365 340.242137 
L 400.217424 499.014076 
L 401.706483 295.326405 
L 403.195542 350.901195 
L 404.684601 520.846397 
L 406.17366 389.84884 
L 407.662719 218.172483 
L 409.151778 410.458773 
L 410.640836 503.952259 
L 412.129895 415.249997 
L 413.618954 378.478633 
L 415.108013 258.961207 
L 416.597072 343.748342 
L 418.086131 208.379592 
L 419.57519 308.213928 
L 421.064249 313.420787 
L 422.553307 490.909359 
L 424.042366 375.864697 
L 425.531425 423.515425 
L 427.020484 451.212129 
L 428.509543 438.630355 
L 429.998602 353.030338 
L 431.487661 356.584129 
L 432.97672 388.11459 
L 434.465779 407.369082 
L 435.954837 372.194834 
L 437.443896 432.976633 
L 438.932955 310.588059 
L 440.422014 406.36242 
L 441.911073 331.90849 
L 443.400132 344.485804 
L 444.889191 438.166752 
L 446.37825 449.3533 
L 447.867309 290.356102 
L 449.356367 239.738102 
L 450.845426 508.393677 
L 452.334485 394.728617 
L 453.823544 349.239756 
L 455.312603 379.333035 
L 456.801662 295.280916 
L 458.290721 270.464623 
L 459.77978 475.119876 
L 461.268839 366.157152 
L 464.246956 421.429144 
L 465.736015 565.482753 
L 467.225074 284.571964 
L 468.714133 289.02697 
L 470.203192 572.895567 
L 471.692251 324.570879 
L 473.18131 347.658063 
L 474.670369 298.161037 
L 476.159427 443.07547 
L 477.648486 426.17665 
L 479.137545 219.867907 
L 480.626604 365.797566 
L 482.115663 303.932634 
L 483.604722 525.914158 
L 485.093781 556.152221 
L 486.58284 380.545486 
L 488.071898 547.244545 
L 489.560957 321.148291 
L 491.050016 295.295381 
L 492.539075 293.678222 
L 494.028134 326.51397 
L 495.517193 476.716005 
L 497.006252 337.17911 
L 498.495311 300.747638 
L 499.98437 380.162082 
L 501.473428 408.706204 
L 502.962487 441.413374 
L 504.451546 280.365817 
L 505.940605 400.643089 
L 507.429664 440.727929 
L 508.918723 562.534217 
L 510.407782 305.362834 
L 511.896841 349.962491 
L 513.3859 469.039221 
L 514.874958 394.606796 
L 516.364017 245.317149 
L 517.853076 261.328235 
L 519.342135 375.356529 
L 520.831194 413.756924 
L 522.320253 344.517607 
L 523.809312 340.184543 
L 525.298371 327.801766 
L 526.78743 361.023964 
L 528.276488 255.146699 
L 529.765547 346.661369 
L 531.254606 164.742349 
L 532.743665 214.377483 
L 534.232724 359.821401 
L 535.721783 415.296987 
L 537.210842 233.395365 
L 538.699901 336.245677 
L 540.18896 376.833016 
L 541.678018 422.033201 
L 543.167077 352.237268 
L 544.656136 378.076055 
L 546.145195 463.270762 
L 547.634254 468.453295 
L 549.123313 247.921358 
L 550.612372 237.919425 
L 552.101431 388.303424 
L 553.590489 319.674794 
L 555.079548 328.779448 
L 556.568607 467.204408 
L 558.057666 429.118997 
L 559.546725 276.975303 
L 561.035784 470.856668 
L 562.524843 207.873637 
L 564.013902 302.229517 
L 565.502961 439.189552 
L 566.992019 312.832201 
L 568.481078 554.605934 
L 569.970137 558.160279 
L 571.459196 322.544812 
L 572.948255 502.111414 
L 574.437314 195.178365 
L 575.926373 359.491922 
L 577.415432 451.409493 
L 578.904491 531.50334 
L 580.393549 367.54878 
L 581.882608 498.942219 
L 583.371667 294.470107 
L 584.860726 360.300795 
L 586.349785 479.23675 
L 587.838844 339.166924 
L 589.327903 416.191065 
L 590.816962 223.027811 
L 592.306021 417.486688 
L 593.795079 184.312797 
L 595.284138 344.024587 
L 596.773197 225.234684 
L 598.262256 336.772152 
L 599.751315 436.673732 
L 601.240374 410.810297 
L 602.729433 306.033905 
L 604.218492 432.704026 
L 607.196609 482.157552 
L 608.685668 467.756639 
L 610.174727 431.974533 
L 611.663786 341.446332 
L 613.152845 186.785813 
L 614.641904 362.241466 
L 616.130963 282.499361 
L 617.620022 410.720146 
L 619.10908 413.010227 
L 620.598139 387.354534 
L 622.087198 319.143645 
L 623.576257 404.936744 
L 625.065316 422.959569 
L 626.554375 316.742283 
L 628.043434 426.154883 
L 629.532493 437.149745 
L 631.021552 456.291097 
L 632.51061 506.697654 
L 633.999669 451.786306 
L 635.488728 339.043751 
L 636.977787 389.788713 
L 638.466846 255.659001 
L 639.955905 345.982786 
L 641.444964 311.924457 
L 642.934023 406.710134 
L 644.423082 382.72833 
L 645.91214 462.558153 
L 647.401199 491.074602 
L 648.890258 389.478515 
L 650.379317 142.102174 
L 651.868376 453.092101 
L 653.357435 405.098257 
L 654.846494 474.734452 
L 656.335553 403.444689 
L 657.824612 434.031538 
L 659.31367 441.482763 
L 660.802729 362.807804 
L 662.291788 346.08999 
L 663.780847 298.092734 
L 665.269906 356.360978 
L 666.758965 525.255157 
L 668.248024 267.606416 
L 669.737083 291.294417 
L 671.226142 385.222965 
L 672.7152 332.315879 
L 675.693318 487.610372 
L 677.182377 430.461615 
L 678.671436 309.511671 
L 680.160495 402.563686 
L 681.649554 363.472896 
L 683.138613 224.9777 
L 684.627671 334.539041 
L 686.11673 380.058699 
L 687.605789 434.378191 
L 689.094848 329.697519 
L 690.583907 196.509548 
L 692.072966 260.54915 
L 693.562025 341.856964 
L 695.051084 435.22636 
L 696.540143 349.877544 
L 698.029201 416.732372 
L 699.51826 408.309172 
L 701.007319 469.402609 
L 702.496378 394.458436 
L 703.985437 499.194948 
L 705.474496 307.268224 
L 706.963555 441.190293 
L 708.452614 402.240304 
L 709.941673 461.679676 
L 711.430731 402.819682 
L 712.91979 364.858145 
L 714.408849 389.566313 
L 715.897908 355.039478 
L 717.386967 205.15427 
L 718.876026 609.87675 
L 720.365085 401.930644 
L 721.854144 456.561256 
L 723.343203 204.761026 
L 724.832261 439.603202 
L 726.32132 338.146898 
L 727.810379 221.448225 
L 729.299438 305.647465 
L 730.788497 455.5112 
L 732.277556 480.630966 
L 733.766615 384.747582 
L 735.255674 314.978809 
L 736.744733 367.273863 
L 738.233791 238.46405 
L 739.72285 401.880841 
L 741.211909 390.502963 
L 742.700968 412.351142 
L 744.190027 353.945427 
L 745.679086 379.469484 
L 747.168145 298.4429 
L 748.657204 494.744999 
L 750.146262 344.417516 
L 751.635321 456.489937 
L 753.12438 409.038535 
L 754.613439 289.790547 
L 756.102498 360.265036 
L 757.591557 361.279282 
L 759.080616 214.04711 
L 760.569675 426.114151 
L 762.058734 463.650215 
L 763.547792 426.910047 
L 765.036851 455.754626 
L 766.52591 208.107721 
L 768.014969 425.065658 
L 769.504028 422.043041 
L 770.993087 326.604137 
L 773.971205 465.913621 
L 775.460264 426.351495 
L 776.949322 413.100173 
L 778.438381 240.795759 
L 779.92744 336.313515 
L 781.416499 312.779019 
L 782.905558 296.608398 
L 784.394617 379.397573 
L 785.883676 398.165771 
L 787.372735 341.179747 
L 788.861794 296.619751 
L 790.350852 366.483553 
L 791.839911 550.780611 
L 793.32897 361.978355 
L 794.818029 415.979853 
L 796.307088 426.477051 
L 797.796147 420.518328 
L 799.285206 337.086867 
L 800.774265 324.645097 
L 802.263324 458.772582 
L 803.752382 401.760281 
L 805.241441 424.009585 
L 806.7305 265.977852 
L 808.219559 147.404446 
L 809.708618 164.943987 
L 811.197677 355.769401 
L 812.686736 365.773798 
L 814.175795 549.37684 
L 815.664853 526.943899 
L 817.153912 279.850073 
L 818.642971 255.406404 
L 820.13203 380.410259 
L 821.621089 280.301688 
L 823.110148 236.717251 
L 824.599207 426.232219 
L 826.088266 435.212747 
L 827.577325 379.18597 
L 829.066383 390.049044 
L 830.555442 339.839348 
L 832.044501 371.86463 
L 833.53356 386.50118 
L 835.022619 326.406154 
L 836.511678 394.480401 
L 838.000737 272.782521 
L 839.489796 237.103448 
L 840.978855 317.953627 
L 842.467913 348.18987 
L 843.956972 287.537144 
L 845.446031 453.020361 
L 846.93509 411.620337 
L 848.424149 390.30924 
L 849.913208 381.85797 
L 851.402267 418.889665 
L 852.891326 171.350721 
L 854.380385 356.991067 
L 855.869443 323.688889 
L 857.358502 105.87675 
L 858.847561 387.500414 
L 860.33662 282.301195 
L 861.825679 456.593874 
L 863.314738 395.933561 
L 864.803797 517.580505 
L 866.292856 345.026748 
L 867.781915 464.341997 
L 869.270973 428.690703 
L 870.760032 417.212657 
L 872.249091 509.032572 
L 873.73815 398.4172 
L 875.227209 356.77686 
L 876.716268 420.069572 
L 878.205327 394.003499 
L 878.205327 394.003499 
" style="fill:none;stroke:#1f77b4;stroke-linecap:square;stroke-width:1.5;"/>
   </g>
   <g id="line2d_12">
    <path clip-path="url(#p6e0a9be37d)" d="M 117.296236 377.859513 
L 118.785295 317.623451 
L 120.274354 463.046163 
L 121.763412 317.623451 
L 124.74153 438.095575 
L 126.230589 292.672863 
L 127.719648 438.095575 
L 130.697766 317.623451 
L 132.186825 463.046163 
L 133.675884 317.623451 
L 136.654001 438.095575 
L 138.14306 292.672863 
L 139.632119 438.095575 
L 142.610237 317.623451 
L 144.099296 463.046163 
L 145.588355 317.623451 
L 148.566472 438.095575 
L 150.055531 292.672863 
L 151.54459 438.095575 
L 154.522708 317.623451 
L 156.011767 463.046163 
L 157.500826 317.623451 
L 160.478943 438.095575 
L 161.968002 292.672863 
L 163.457061 438.095575 
L 166.435179 317.623451 
L 167.924238 463.046163 
L 169.413297 317.623451 
L 172.391415 438.095575 
L 173.880473 292.672863 
L 175.369532 438.095575 
L 178.34765 317.623451 
L 179.836709 463.046163 
L 181.325768 317.623451 
L 184.303886 438.095575 
L 185.792945 292.672863 
L 187.282003 438.095575 
L 190.260121 317.623451 
L 191.74918 463.046163 
L 193.238239 317.623451 
L 196.216357 438.095575 
L 197.705416 292.672863 
L 199.194475 438.095575 
L 202.172592 317.623451 
L 203.661651 463.046163 
L 205.15071 317.623451 
L 208.128828 438.095575 
L 209.617887 292.672863 
L 211.106946 438.095575 
L 214.085063 317.623451 
L 215.574122 463.046163 
L 217.063181 317.623451 
L 220.041299 438.095575 
L 221.530358 292.672863 
L 223.019417 438.095575 
L 225.997534 317.623451 
L 227.486593 463.046163 
L 228.975652 317.623451 
L 231.95377 438.095575 
L 233.442829 292.672863 
L 234.931888 438.095565 
L 237.910006 317.623451 
L 239.399064 463.046163 
L 240.888123 317.623461 
L 243.866241 438.095575 
L 245.3553 292.672863 
L 246.844359 438.095565 
L 249.822477 317.623451 
L 251.311536 463.046163 
L 252.800594 317.623461 
L 255.778712 438.095575 
L 257.267771 292.672863 
L 258.75683 438.095565 
L 261.734948 317.623451 
L 263.224007 463.046163 
L 264.713066 317.623461 
L 267.691183 438.095575 
L 269.180242 292.672863 
L 270.669301 438.095565 
L 273.647419 317.623446 
L 275.136478 463.046163 
L 276.625537 317.623461 
L 279.603654 438.09558 
L 281.092713 292.672863 
L 282.581772 438.095565 
L 285.55989 317.623446 
L 287.048949 463.046163 
L 288.538008 317.623461 
L 291.516125 438.09558 
L 293.005184 292.672863 
L 294.494243 438.09556 
L 297.472361 317.623446 
L 298.96142 463.046163 
L 300.450479 317.623466 
L 303.428597 438.09558 
L 304.917655 292.672863 
L 306.406714 438.09556 
L 309.384832 317.623446 
L 310.873891 463.046163 
L 312.36295 317.623466 
L 315.341068 438.09558 
L 316.830127 292.672863 
L 318.319185 438.09556 
L 321.297303 317.623446 
L 322.786362 463.046163 
L 324.275421 317.623466 
L 327.253539 438.095585 
L 328.742598 292.672863 
L 330.231657 438.09556 
L 333.209774 317.623441 
L 334.698833 463.046163 
L 336.187892 317.623466 
L 339.16601 438.095585 
L 340.655069 292.672863 
L 342.144128 438.095555 
L 345.122245 317.623441 
L 346.611304 463.046163 
L 348.100363 317.623471 
L 351.078481 438.095585 
L 352.56754 292.672863 
L 354.056599 438.095555 
L 357.034716 317.623441 
L 358.523775 463.046163 
L 360.012834 317.623471 
L 362.990952 438.095585 
L 364.480011 292.672863 
L 365.96907 438.095555 
L 368.947188 317.62343 
L 370.436246 463.046163 
L 371.925305 317.623471 
L 374.903423 438.095595 
L 376.392482 292.672863 
L 377.881541 438.095555 
L 380.859659 317.62343 
L 382.348718 463.046163 
L 383.837776 317.623476 
L 386.815894 438.095595 
L 388.304953 292.672863 
L 389.794012 438.09555 
L 392.77213 317.62343 
L 394.261189 463.046163 
L 395.750248 317.623476 
L 398.728365 438.0956 
L 400.217424 292.672863 
L 401.706483 438.09555 
L 404.684601 317.623425 
L 406.17366 463.046163 
L 407.662719 317.623476 
L 410.640836 438.0956 
L 412.129895 292.672863 
L 413.618954 438.09555 
L 416.597072 317.623425 
L 418.086131 463.046163 
L 419.57519 317.623476 
L 422.553307 438.0956 
L 424.042366 292.672863 
L 425.531425 438.09555 
L 428.509543 317.623425 
L 429.998602 463.046163 
L 431.487661 317.623476 
L 434.465779 438.0956 
L 435.954837 292.672863 
L 437.443896 438.09555 
L 440.422014 317.623425 
L 441.911073 463.046163 
L 443.400132 317.623481 
L 446.37825 438.0956 
L 447.867309 292.672863 
L 449.356367 438.095545 
L 452.334485 317.623425 
L 453.823544 463.046163 
L 455.312603 317.623481 
L 458.290721 438.095605 
L 459.77978 292.672863 
L 461.268839 438.095545 
L 464.246956 317.62342 
L 465.736015 463.046163 
L 467.225074 317.623481 
L 470.203192 438.095605 
L 471.692251 292.672863 
L 473.18131 438.095534 
L 476.159427 317.62342 
L 477.648486 463.046163 
L 479.137545 317.623491 
L 482.115663 438.095605 
L 483.604722 292.672863 
L 485.093781 438.095534 
L 488.071898 317.623415 
L 489.560957 463.046163 
L 491.050016 317.623491 
L 494.028134 438.095611 
L 495.517193 292.672863 
L 497.006252 438.095529 
L 499.98437 317.623415 
L 501.473428 463.046163 
L 502.962487 317.623496 
L 505.940605 438.095611 
L 507.429664 292.672863 
L 508.918723 438.095529 
L 511.896841 317.62341 
L 513.3859 463.046163 
L 514.874958 317.623496 
L 517.853076 438.095616 
L 519.342135 292.672863 
L 520.831194 438.095524 
L 523.809312 317.62341 
L 525.298371 463.046163 
L 526.78743 317.623502 
L 529.765547 438.095616 
L 531.254606 292.672863 
L 532.743665 438.095524 
L 535.721783 317.6234 
L 537.210842 463.046163 
L 538.699901 317.623502 
L 541.678018 438.095626 
L 543.167077 292.672863 
L 544.656136 438.095524 
L 547.634254 317.6234 
L 549.123313 463.046163 
L 550.612372 317.623502 
L 553.590489 438.095626 
L 555.079548 292.672863 
L 556.568607 438.095524 
L 559.546725 317.6234 
L 561.035784 463.046163 
L 562.524843 317.623512 
L 565.502961 438.095626 
L 566.992019 292.672863 
L 568.481078 438.095514 
L 571.459196 317.6234 
L 572.948255 463.046163 
L 574.437314 317.623512 
L 577.415432 438.095631 
L 578.904491 292.672863 
L 580.393549 438.095514 
L 583.371667 317.623395 
L 584.860726 463.046163 
L 586.349785 317.623517 
L 589.327903 438.095631 
L 590.816962 292.672863 
L 592.306021 438.095509 
L 595.284138 317.62339 
L 596.773197 463.046163 
L 598.262256 317.623517 
L 601.240374 438.095636 
L 602.729433 292.672863 
L 604.218492 438.095504 
L 607.196609 317.62339 
L 608.685668 463.046163 
L 610.174727 317.623522 
L 613.152845 438.095646 
L 614.641904 292.672863 
L 616.130963 438.095504 
L 619.10908 317.62338 
L 620.598139 463.046163 
L 622.087198 317.623527 
L 625.065316 438.095646 
L 626.554375 292.672863 
L 628.043434 438.095499 
L 631.021552 317.623375 
L 632.51061 463.046163 
L 633.999669 317.623527 
L 636.977787 438.095651 
L 638.466846 292.672863 
L 639.955905 438.095499 
L 642.934023 317.623375 
L 644.423082 463.046163 
L 645.91214 317.623527 
L 648.890258 438.095651 
L 650.379317 292.672863 
L 651.868376 438.095499 
L 654.846494 317.623375 
L 656.335553 463.046163 
L 657.824612 317.623532 
L 660.802729 438.095651 
L 662.291788 292.672863 
L 663.780847 438.095494 
L 666.758965 317.623369 
L 668.248024 463.046163 
L 669.737083 317.623532 
L 672.7152 438.095656 
L 674.204259 292.672863 
L 675.693318 438.095484 
L 678.671436 317.623369 
L 680.160495 463.046163 
L 681.649554 317.623542 
L 684.627671 438.095661 
L 686.11673 292.672863 
L 687.605789 438.095484 
L 690.583907 317.623364 
L 692.072966 463.046163 
L 693.562025 317.623547 
L 696.540143 438.095661 
L 698.029201 292.672863 
L 699.51826 438.095479 
L 702.496378 317.623359 
L 703.985437 463.046163 
L 705.474496 317.623552 
L 708.452614 438.095666 
L 709.941673 292.672863 
L 711.430731 438.095473 
L 714.408849 317.623349 
L 715.897908 463.046163 
L 717.386967 317.623552 
L 720.365085 438.095677 
L 721.854144 292.672863 
L 723.343203 438.095473 
L 726.32132 317.623349 
L 727.810379 463.046163 
L 729.299438 317.623552 
L 732.277556 438.095677 
L 733.766615 292.672863 
L 735.255674 438.095463 
L 738.233791 317.623349 
L 739.72285 463.046163 
L 741.211909 317.623562 
L 744.190027 438.095682 
L 745.679086 292.672863 
L 747.168145 438.095463 
L 750.146262 317.623344 
L 751.635321 463.046163 
L 753.12438 317.623568 
L 756.102498 438.095682 
L 757.591557 292.672863 
L 759.080616 438.095458 
L 762.058734 317.623339 
L 763.547792 463.046163 
L 765.036851 317.623573 
L 768.014969 438.095687 
L 769.504028 292.672863 
L 770.993087 438.095453 
L 773.971205 317.623329 
L 775.460264 463.046163 
L 776.949322 317.623573 
L 779.92744 438.095697 
L 781.416499 292.672863 
L 782.905558 438.095448 
L 785.883676 317.623329 
L 787.372735 463.046163 
L 788.861794 317.623578 
L 791.839911 438.095702 
L 793.32897 292.672863 
L 794.818029 438.095448 
L 797.796147 317.623324 
L 799.285206 463.046163 
L 800.774265 317.623578 
L 803.752382 438.095702 
L 805.241441 292.672863 
L 806.7305 438.095443 
L 809.708618 317.623324 
L 811.197677 463.046163 
L 812.686736 317.623583 
L 815.664853 438.095707 
L 817.153912 292.672863 
L 818.642971 438.095443 
L 821.621089 317.623319 
L 823.110148 463.046163 
L 824.599207 317.623593 
L 827.577325 438.095712 
L 829.066383 292.672863 
L 830.555442 438.095433 
L 833.53356 317.623314 
L 835.022619 463.046163 
L 836.511678 317.623598 
L 839.489796 438.095717 
L 840.978855 292.672863 
L 842.467913 438.095428 
L 845.446031 317.623309 
L 846.93509 463.046163 
L 848.424149 317.623603 
L 851.402267 438.095717 
L 852.891326 292.672863 
L 854.380385 438.095423 
L 857.358502 317.623298 
L 858.847561 463.046163 
L 860.33662 317.623603 
L 863.314738 438.095727 
L 864.803797 292.672863 
L 866.292856 438.095423 
L 869.270973 317.623298 
L 870.760032 463.046163 
L 872.249091 317.623613 
L 875.227209 438.095727 
L 876.716268 292.672863 
L 878.205327 438.095413 
L 878.205327 438.095413 
" style="fill:none;stroke:#ff7f0e;stroke-linecap:square;stroke-width:1.5;"/>
   </g>
   <g id="patch_3">
    <path d="M 79.250781 635.07675 
L 79.250781 80.67675 
" style="fill:none;stroke:#000000;stroke-linecap:square;stroke-linejoin:miter;stroke-width:0.8;"/>
   </g>
   <g id="patch_4">
    <path d="M 916.250781 635.07675 
L 916.250781 80.67675 
" style="fill:none;stroke:#000000;stroke-linecap:square;stroke-linejoin:miter;stroke-width:0.8;"/>
   </g>
   <g id="patch_5">
    <path d="M 79.250781 635.07675 
L 916.250781 635.07675 
" style="fill:none;stroke:#000000;stroke-linecap:square;stroke-linejoin:miter;stroke-width:0.8;"/>
   </g>
   <g id="patch_6">
    <path d="M 79.250781 80.67675 
L 916.250781 80.67675 
" style="fill:none;stroke:#000000;stroke-linecap:square;stroke-linejoin:miter;stroke-width:0.8;"/>
   </g>
   <g id="text_13">
    <!-- injected signal (displayed 10x) and gaussian white noise -->
    <defs>
     <path d="M 9.421875 54.6875 
L 18.40625 54.6875 
L 18.40625 -0.984375 
Q 18.40625 -11.421875 14.421875 -16.109375 
Q 10.453125 -20.796875 1.609375 -20.796875 
L -1.8125 -20.796875 
L -1.8125 -13.1875 
L 0.59375 -13.1875 
Q 5.71875 -13.1875 7.5625 -10.8125 
Q 9.421875 -8.453125 9.421875 -0.984375 
z
M 9.421875 75.984375 
L 18.40625 75.984375 
L 18.40625 64.59375 
L 9.421875 64.59375 
z
" id="DejaVuSans-6a"/>
     <path d="M 48.78125 52.59375 
L 48.78125 44.1875 
Q 44.96875 46.296875 41.140625 47.34375 
Q 37.3125 48.390625 33.40625 48.390625 
Q 24.65625 48.390625 19.8125 42.84375 
Q 14.984375 37.3125 14.984375 27.296875 
Q 14.984375 17.28125 19.8125 11.734375 
Q 24.65625 6.203125 33.40625 6.203125 
Q 37.3125 6.203125 41.140625 7.25 
Q 44.96875 8.296875 48.78125 10.40625 
L 48.78125 2.09375 
Q 45.015625 0.34375 40.984375 -0.53125 
Q 36.96875 -1.421875 32.421875 -1.421875 
Q 20.0625 -1.421875 12.78125 6.34375 
Q 5.515625 14.109375 5.515625 27.296875 
Q 5.515625 40.671875 12.859375 48.328125 
Q 20.21875 56 33.015625 56 
Q 37.15625 56 41.109375 55.140625 
Q 45.0625 54.296875 48.78125 52.59375 
z
" id="DejaVuSans-63"/>
     <path d="M 45.40625 27.984375 
Q 45.40625 37.75 41.375 43.109375 
Q 37.359375 48.484375 30.078125 48.484375 
Q 22.859375 48.484375 18.828125 43.109375 
Q 14.796875 37.75 14.796875 27.984375 
Q 14.796875 18.265625 18.828125 12.890625 
Q 22.859375 7.515625 30.078125 7.515625 
Q 37.359375 7.515625 41.375 12.890625 
Q 45.40625 18.265625 45.40625 27.984375 
z
M 54.390625 6.78125 
Q 54.390625 -7.171875 48.1875 -13.984375 
Q 42 -20.796875 29.203125 -20.796875 
Q 24.46875 -20.796875 20.265625 -20.09375 
Q 16.0625 -19.390625 12.109375 -17.921875 
L 12.109375 -9.1875 
Q 16.0625 -11.328125 19.921875 -12.34375 
Q 23.78125 -13.375 27.78125 -13.375 
Q 36.625 -13.375 41.015625 -8.765625 
Q 45.40625 -4.15625 45.40625 5.171875 
L 45.40625 9.625 
Q 42.625 4.78125 38.28125 2.390625 
Q 33.9375 0 27.875 0 
Q 17.828125 0 11.671875 7.65625 
Q 5.515625 15.328125 5.515625 27.984375 
Q 5.515625 40.671875 11.671875 48.328125 
Q 17.828125 56 27.875 56 
Q 33.9375 56 38.28125 53.609375 
Q 42.625 51.21875 45.40625 46.390625 
L 45.40625 54.6875 
L 54.390625 54.6875 
z
" id="DejaVuSans-67"/>
     <path d="M 31 75.875 
Q 24.46875 64.65625 21.28125 53.65625 
Q 18.109375 42.671875 18.109375 31.390625 
Q 18.109375 20.125 21.3125 9.0625 
Q 24.515625 -2 31 -13.1875 
L 23.1875 -13.1875 
Q 15.875 -1.703125 12.234375 9.375 
Q 8.59375 20.453125 8.59375 31.390625 
Q 8.59375 42.28125 12.203125 53.3125 
Q 15.828125 64.359375 23.1875 75.875 
z
" id="DejaVuSans-28"/>
     <path d="M 18.109375 8.203125 
L 18.109375 -20.796875 
L 9.078125 -20.796875 
L 9.078125 54.6875 
L 18.109375 54.6875 
L 18.109375 46.390625 
Q 20.953125 51.265625 25.265625 53.625 
Q 29.59375 56 35.59375 56 
Q 45.5625 56 51.78125 48.09375 
Q 58.015625 40.1875 58.015625 27.296875 
Q 58.015625 14.40625 51.78125 6.484375 
Q 45.5625 -1.421875 35.59375 -1.421875 
Q 29.59375 -1.421875 25.265625 0.953125 
Q 20.953125 3.328125 18.109375 8.203125 
z
M 48.6875 27.296875 
Q 48.6875 37.203125 44.609375 42.84375 
Q 40.53125 48.484375 33.40625 48.484375 
Q 26.265625 48.484375 22.1875 42.84375 
Q 18.109375 37.203125 18.109375 27.296875 
Q 18.109375 17.390625 22.1875 11.75 
Q 26.265625 6.109375 33.40625 6.109375 
Q 40.53125 6.109375 44.609375 11.75 
Q 48.6875 17.390625 48.6875 27.296875 
z
" id="DejaVuSans-70"/>
     <path d="M 32.171875 -5.078125 
Q 28.375 -14.84375 24.75 -17.8125 
Q 21.140625 -20.796875 15.09375 -20.796875 
L 7.90625 -20.796875 
L 7.90625 -13.28125 
L 13.1875 -13.28125 
Q 16.890625 -13.28125 18.9375 -11.515625 
Q 21 -9.765625 23.484375 -3.21875 
L 25.09375 0.875 
L 2.984375 54.6875 
L 12.5 54.6875 
L 29.59375 11.921875 
L 46.6875 54.6875 
L 56.203125 54.6875 
z
" id="DejaVuSans-79"/>
     <path d="M 54.890625 54.6875 
L 35.109375 28.078125 
L 55.90625 0 
L 45.3125 0 
L 29.390625 21.484375 
L 13.484375 0 
L 2.875 0 
L 24.125 28.609375 
L 4.6875 54.6875 
L 15.28125 54.6875 
L 29.78125 35.203125 
L 44.28125 54.6875 
z
" id="DejaVuSans-78"/>
     <path d="M 8.015625 75.875 
L 15.828125 75.875 
Q 23.140625 64.359375 26.78125 53.3125 
Q 30.421875 42.28125 30.421875 31.390625 
Q 30.421875 20.453125 26.78125 9.375 
Q 23.140625 -1.703125 15.828125 -13.1875 
L 8.015625 -13.1875 
Q 14.5 -2 17.703125 9.0625 
Q 20.90625 20.125 20.90625 31.390625 
Q 20.90625 42.671875 17.703125 53.65625 
Q 14.5 64.65625 8.015625 75.875 
z
" id="DejaVuSans-29"/>
     <path d="M 8.5 21.578125 
L 8.5 54.6875 
L 17.484375 54.6875 
L 17.484375 21.921875 
Q 17.484375 14.15625 20.5 10.265625 
Q 23.53125 6.390625 29.59375 6.390625 
Q 36.859375 6.390625 41.078125 11.03125 
Q 45.3125 15.671875 45.3125 23.6875 
L 45.3125 54.6875 
L 54.296875 54.6875 
L 54.296875 0 
L 45.3125 0 
L 45.3125 8.40625 
Q 42.046875 3.421875 37.71875 1 
Q 33.40625 -1.421875 27.6875 -1.421875 
Q 18.265625 -1.421875 13.375 4.4375 
Q 8.5 10.296875 8.5 21.578125 
z
M 31.109375 56 
z
" id="DejaVuSans-75"/>
     <path d="M 4.203125 54.6875 
L 13.1875 54.6875 
L 24.421875 12.015625 
L 35.59375 54.6875 
L 46.1875 54.6875 
L 57.421875 12.015625 
L 68.609375 54.6875 
L 77.59375 54.6875 
L 63.28125 0 
L 52.6875 0 
L 40.921875 44.828125 
L 29.109375 0 
L 18.5 0 
z
" id="DejaVuSans-77"/>
     <path d="M 54.890625 33.015625 
L 54.890625 0 
L 45.90625 0 
L 45.90625 32.71875 
Q 45.90625 40.484375 42.875 44.328125 
Q 39.84375 48.1875 33.796875 48.1875 
Q 26.515625 48.1875 22.3125 43.546875 
Q 18.109375 38.921875 18.109375 30.90625 
L 18.109375 0 
L 9.078125 0 
L 9.078125 75.984375 
L 18.109375 75.984375 
L 18.109375 46.1875 
Q 21.34375 51.125 25.703125 53.5625 
Q 30.078125 56 35.796875 56 
Q 45.21875 56 50.046875 50.171875 
Q 54.890625 44.34375 54.890625 33.015625 
z
" id="DejaVuSans-68"/>
    </defs>
    <g transform="translate(72.491406 29.995312)scale(0.3 -0.3)">
     <use xlink:href="#DejaVuSans-69"/>
     <use x="27.783203" xlink:href="#DejaVuSans-6e"/>
     <use x="91.162109" xlink:href="#DejaVuSans-6a"/>
     <use x="118.945312" xlink:href="#DejaVuSans-65"/>
     <use x="180.46875" xlink:href="#DejaVuSans-63"/>
     <use x="235.449219" xlink:href="#DejaVuSans-74"/>
     <use x="274.658203" xlink:href="#DejaVuSans-65"/>
     <use x="336.181641" xlink:href="#DejaVuSans-64"/>
     <use x="399.658203" xlink:href="#DejaVuSans-20"/>
     <use x="431.445312" xlink:href="#DejaVuSans-73"/>
     <use x="483.544922" xlink:href="#DejaVuSans-69"/>
     <use x="511.328125" xlink:href="#DejaVuSans-67"/>
     <use x="574.804688" xlink:href="#DejaVuSans-6e"/>
     <use x="638.183594" xlink:href="#DejaVuSans-61"/>
     <use x="699.462891" xlink:href="#DejaVuSans-6c"/>
     <use x="727.246094" xlink:href="#DejaVuSans-20"/>
     <use x="759.033203" xlink:href="#DejaVuSans-28"/>
     <use x="798.046875" xlink:href="#DejaVuSans-64"/>
     <use x="861.523438" xlink:href="#DejaVuSans-69"/>
     <use x="889.306641" xlink:href="#DejaVuSans-73"/>
     <use x="941.40625" xlink:href="#DejaVuSans-70"/>
     <use x="1004.882812" xlink:href="#DejaVuSans-6c"/>
     <use x="1032.666016" xlink:href="#DejaVuSans-61"/>
     <use x="1093.945312" xlink:href="#DejaVuSans-79"/>
     <use x="1153.125" xlink:href="#DejaVuSans-65"/>
     <use x="1214.648438" xlink:href="#DejaVuSans-64"/>
     <use x="1278.125" xlink:href="#DejaVuSans-20"/>
     <use x="1309.912109" xlink:href="#DejaVuSans-31"/>
     <use x="1373.535156" xlink:href="#DejaVuSans-30"/>
     <use x="1437.158203" xlink:href="#DejaVuSans-78"/>
     <use x="1496.337891" xlink:href="#DejaVuSans-29"/>
     <use x="1535.351562" xlink:href="#DejaVuSans-20"/>
     <use x="1567.138672" xlink:href="#DejaVuSans-61"/>
     <use x="1628.417969" xlink:href="#DejaVuSans-6e"/>
     <use x="1691.796875" xlink:href="#DejaVuSans-64"/>
     <use x="1755.273438" xlink:href="#DejaVuSans-20"/>
     <use x="1787.060547" xlink:href="#DejaVuSans-67"/>
     <use x="1850.537109" xlink:href="#DejaVuSans-61"/>
     <use x="1911.816406" xlink:href="#DejaVuSans-75"/>
     <use x="1975.195312" xlink:href="#DejaVuSans-73"/>
     <use x="2027.294922" xlink:href="#DejaVuSans-73"/>
     <use x="2079.394531" xlink:href="#DejaVuSans-69"/>
     <use x="2107.177734" xlink:href="#DejaVuSans-61"/>
     <use x="2168.457031" xlink:href="#DejaVuSans-6e"/>
     <use x="2231.835938" xlink:href="#DejaVuSans-20"/>
     <use x="2263.623047" xlink:href="#DejaVuSans-77"/>
     <use x="2345.410156" xlink:href="#DejaVuSans-68"/>
     <use x="2408.789062" xlink:href="#DejaVuSans-69"/>
     <use x="2436.572266" xlink:href="#DejaVuSans-74"/>
     <use x="2475.78125" xlink:href="#DejaVuSans-65"/>
     <use x="2537.304688" xlink:href="#DejaVuSans-20"/>
     <use x="2569.091797" xlink:href="#DejaVuSans-6e"/>
     <use x="2632.470703" xlink:href="#DejaVuSans-6f"/>
     <use x="2693.652344" xlink:href="#DejaVuSans-69"/>
     <use x="2721.435547" xlink:href="#DejaVuSans-73"/>
     <use x="2773.535156" xlink:href="#DejaVuSans-65"/>
    </g>
    <!-- R = 0.1 -->
    <defs>
     <path d="M 44.390625 34.1875 
Q 47.5625 33.109375 50.5625 29.59375 
Q 53.5625 26.078125 56.59375 19.921875 
L 66.609375 0 
L 56 0 
L 46.6875 18.703125 
Q 43.0625 26.03125 39.671875 28.421875 
Q 36.28125 30.8125 30.421875 30.8125 
L 19.671875 30.8125 
L 19.671875 0 
L 9.8125 0 
L 9.8125 72.90625 
L 32.078125 72.90625 
Q 44.578125 72.90625 50.734375 67.671875 
Q 56.890625 62.453125 56.890625 51.90625 
Q 56.890625 45.015625 53.6875 40.46875 
Q 50.484375 35.9375 44.390625 34.1875 
z
M 19.671875 64.796875 
L 19.671875 38.921875 
L 32.078125 38.921875 
Q 39.203125 38.921875 42.84375 42.21875 
Q 46.484375 45.515625 46.484375 51.90625 
Q 46.484375 58.296875 42.84375 61.546875 
Q 39.203125 64.796875 32.078125 64.796875 
z
" id="DejaVuSans-52"/>
     <path d="M 10.59375 45.40625 
L 73.1875 45.40625 
L 73.1875 37.203125 
L 10.59375 37.203125 
z
M 10.59375 25.484375 
L 73.1875 25.484375 
L 73.1875 17.1875 
L 10.59375 17.1875 
z
" id="DejaVuSans-3d"/>
     <path d="M 10.6875 12.40625 
L 21 12.40625 
L 21 0 
L 10.6875 0 
z
" id="DejaVuSans-2e"/>
    </defs>
    <g transform="translate(441.369531 63.58875)scale(0.3 -0.3)">
     <use xlink:href="#DejaVuSans-52"/>
     <use x="69.482422" xlink:href="#DejaVuSans-20"/>
     <use x="101.269531" xlink:href="#DejaVuSans-3d"/>
     <use x="185.058594" xlink:href="#DejaVuSans-20"/>
     <use x="216.845703" xlink:href="#DejaVuSans-30"/>
     <use x="280.46875" xlink:href="#DejaVuSans-2e"/>
     <use x="312.255859" xlink:href="#DejaVuSans-31"/>
    </g>
   </g>
  </g>
 </g>
 <defs>
  <clipPath id="p6e0a9be37d">
   <rect height="554.4" width="837" x="79.250781" y="80.67675"/>
  </clipPath>
 </defs>
</svg>
